<?xml version="1.0" encoding="utf-8"?>
<!-- Generator: Adobe Illustrator 16.0.0, SVG Export Plug-In . SVG Version: 6.00 Build 0)  -->
<!DOCTYPE svg PUBLIC "-//W3C//DTD SVG 1.1//EN" "http://www.w3.org/Graphics/SVG/1.1/DTD/svg11.dtd">
<svg version="1.1" id="Layer_1" xmlns="http://www.w3.org/2000/svg" xmlns:xlink="http://www.w3.org/1999/xlink" x="0px" y="0px"
	 width="334.335px" height="256.826px" viewBox="0 0 334.335 256.826" enable-background="new 0 0 334.335 256.826"
	 xml:space="preserve">
<g id="Base_Logo" display="none">
	<g display="inline">
		<g>
			<defs>
				<rect id="SVGID_1_" x="-426.376" y="-2.869" width="136.493" height="86.996"/>
			</defs>
			<clipPath id="SVGID_2_">
				<use xlink:href="#SVGID_1_"  overflow="visible"/>
			</clipPath>
			<g clip-path="url(#SVGID_2_)">
				
					<image overflow="visible" enable-background="new    " width="1921" height="1081" xlink:href="9ECA7E1F.jpeg"  transform="matrix(0.9995 0 0 0.9991 -769.998 -115.7021)">
				</image>
			</g>
		</g>
	</g>
</g>
<g id="Background" display="none">
	<rect x="-130.497" y="-109.969" display="inline" width="595.28" height="595.279"/>
</g>
<g id="Logo_Complete">
	<g>
		<path fill="#FFFFFF" d="M66.698,238.467c-3.561-2.159-6.39-5.079-8.49-8.761c-2.1-3.68-3.15-7.699-3.15-12.061
			c0-4.319,1.04-8.318,3.12-12c2.08-3.68,4.899-6.6,8.46-8.76c3.56-2.16,7.479-3.24,11.76-3.24c2.88,0,5.5,0.42,7.86,1.261
			c2.36,0.84,4.64,2.181,6.84,4.021c0.44,0.32,0.66,0.779,0.66,1.381c0,0.319-0.081,0.609-0.24,0.869
			c-0.161,0.262-0.381,0.449-0.66,0.569c-0.081,0.28-0.261,0.501-0.54,0.66c-0.28,0.159-0.58,0.239-0.9,0.239
			c-0.6,0-1.101-0.18-1.5-0.539c-1.56-1.399-3.261-2.42-5.1-3.061c-1.84-0.64-3.98-0.96-6.42-0.96c-3.36,0-6.48,0.892-9.36,2.67
			c-2.88,1.78-5.17,4.17-6.87,7.17c-1.701,3-2.55,6.239-2.55,9.72c0,3.562,0.84,6.84,2.52,9.84c1.68,3,3.96,5.382,6.84,7.141
			c2.88,1.762,6.02,2.641,9.42,2.641c4.359,0,8.3-1.398,11.82-4.199c0.44-0.319,0.879-0.479,1.32-0.479c0.6,0,1.119,0.21,1.56,0.63
			c0.44,0.42,0.66,0.971,0.66,1.649c0,0.641-0.22,1.2-0.66,1.681c-3.76,3.439-8.66,5.159-14.7,5.159
			C74.158,241.706,70.258,240.626,66.698,238.467z"/>
		<path fill="#FFFFFF" d="M112.958,238.587c-3.64-2.08-6.49-4.949-8.55-8.609c-2.061-3.66-3.09-7.771-3.09-12.33
			c0-4.56,1.029-8.66,3.09-12.301c2.06-3.64,4.91-6.5,8.55-8.58c3.64-2.078,7.74-3.119,12.3-3.119c4.52,0,8.61,1.041,12.27,3.119
			c3.66,2.08,6.519,4.94,8.58,8.58c2.06,3.641,3.09,7.74,3.09,12.301c0,4.56-1.03,8.67-3.09,12.33
			c-2.061,3.66-4.92,6.529-8.58,8.609c-3.66,2.08-7.75,3.119-12.27,3.119C120.698,241.706,116.597,240.667,112.958,238.587z
			 M135.127,234.687c2.94-1.72,5.25-4.068,6.93-7.049c1.68-2.979,2.52-6.311,2.52-9.99c0-3.641-0.84-6.951-2.52-9.931
			c-1.68-2.979-3.99-5.33-6.93-7.051c-2.94-1.72-6.23-2.579-9.87-2.579c-3.681,0-6.99,0.859-9.93,2.579
			c-2.94,1.721-5.25,4.071-6.93,7.051s-2.52,6.29-2.52,9.931c0,3.681,0.84,7.011,2.52,9.989c1.68,2.98,3.99,5.33,6.93,7.05
			c2.94,1.722,6.25,2.58,9.93,2.58C128.897,237.267,132.188,236.407,135.127,234.687z"/>
		<path fill="#FFFFFF" d="M159.517,240.446c-0.441-0.439-0.66-0.999-0.66-1.68v-42.181c0-0.68,0.219-1.239,0.66-1.681
			c0.439-0.439,0.999-0.66,1.68-0.66h12c2.92,0,5.529,0.65,7.83,1.949c2.301,1.302,4.09,3.102,5.371,5.4
			c1.279,2.301,1.92,4.93,1.92,7.891c0,2.921-0.641,5.521-1.92,7.8c-1.281,2.28-3.07,4.062-5.371,5.34
			c-2.301,1.281-4.91,1.921-7.83,1.921h-9.659v14.221c0,0.68-0.221,1.239-0.66,1.68c-0.44,0.439-1,0.66-1.68,0.66
			C160.516,241.106,159.957,240.888,159.517,240.446z M173.196,220.047c2.041,0,3.86-0.45,5.462-1.351
			c1.6-0.899,2.85-2.149,3.75-3.75c0.899-1.6,1.35-3.42,1.35-5.461c0-2.078-0.449-3.93-1.35-5.549
			c-0.902-1.621-2.15-2.891-3.75-3.812c-1.602-0.919-3.421-1.38-5.462-1.38h-9.659v21.301L173.196,220.047L173.196,220.047z"/>
		<path fill="#FFFFFF" d="M228.458,238.767c0,0.642-0.23,1.19-0.69,1.649c-0.46,0.461-1.011,0.69-1.649,0.69
			c-1.041,0-1.781-0.48-2.221-1.44l-4.02-9.72h-23.221l-4.021,9.72c-0.319,0.96-1.04,1.44-2.159,1.44
			c-0.681,0-1.229-0.229-1.649-0.69c-0.42-0.459-0.629-1.009-0.629-1.649c0-0.398,0.059-0.74,0.18-1.021l17.64-41.88
			c0.44-1.08,1.2-1.62,2.28-1.62s1.818,0.54,2.22,1.62l17.7,41.939C228.376,238.087,228.458,238.406,228.458,238.767z
			 M198.337,225.927h19.92l-9.959-24.061L198.337,225.927z"/>
		<path fill="#FFFFFF" d="M235.927,240.416c-0.461-0.459-0.689-1.009-0.689-1.649v-42.18c0-0.68,0.229-1.24,0.689-1.681
			c0.459-0.439,1.01-0.66,1.65-0.66c0.68,0,1.238,0.221,1.68,0.66c0.438,0.44,0.66,1.001,0.66,1.681v42.18
			c0,0.642-0.222,1.19-0.66,1.649c-0.44,0.461-1,0.69-1.68,0.69C236.937,241.106,236.386,240.877,235.927,240.416z"/>
		<path fill="#FFFFFF" d="M281.737,239.126c0,0.602-0.221,1.08-0.659,1.439c-0.441,0.36-1.021,0.541-1.74,0.541
			c-0.48,0-0.881-0.101-1.199-0.301c-0.321-0.199-0.602-0.5-0.842-0.899l-10.799-17.16h-1.021h-8.881v16.021
			c0,0.682-0.222,1.24-0.66,1.68c-0.438,0.441-1,0.66-1.681,0.66c-0.68,0-1.239-0.219-1.68-0.66c-0.441-0.438-0.66-0.998-0.66-1.68
			v-42.18c0-0.68,0.219-1.24,0.66-1.681c0.439-0.439,1-0.66,1.68-0.66h11.222c2.919,0,5.521,0.61,7.799,1.83
			c2.281,1.221,4.07,2.931,5.371,5.13c1.3,2.201,1.949,4.701,1.949,7.5c0,3.081-0.83,5.781-2.49,8.102
			c-1.659,2.319-3.909,3.979-6.75,4.979l9.841,15.721C281.558,238.106,281.737,238.646,281.737,239.126z M265.478,218.246
			c1.999,0,3.811-0.409,5.43-1.229c1.619-0.818,2.881-1.949,3.779-3.391c0.9-1.439,1.352-3.079,1.352-4.92
			c0-1.92-0.451-3.639-1.352-5.159c-0.898-1.521-2.15-2.7-3.75-3.54c-1.6-0.841-3.42-1.261-5.459-1.261h-8.881v19.5H265.478z"/>
	</g>
	
		<image overflow="visible" enable-background="new    " width="1920" height="1081" xlink:href="9ECA7E1D.jpeg"  transform="matrix(1 0 0 0.9991 -8024.4971 -8011.6885)">
	</image>
	<circle fill="none" stroke="#FFFFFF" stroke-width="8" stroke-miterlimit="10" cx="66.334" cy="87.084" r="62.334"/>
	<path fill="none" stroke="#FFFFFF" stroke-width="8" stroke-miterlimit="10" d="M205.669,87.084
		c0,34.427,27.912,62.335,62.334,62.335c34.424,0,62.332-27.908,62.332-62.335c0-34.426-27.908-62.334-62.332-62.334
		C233.582,24.75,205.669,52.658,205.669,87.084z"/>
	<path fill="#FFFFFF" d="M257.003,87.08c0,48.095-38.988,87.085-87.084,87.085c-48.095,0-87.081-38.99-87.081-87.085
		C82.839,38.989,121.824,0,169.919,0C218.015,0,257.003,38.989,257.003,87.08z"/>
</g>
<g id="Logo_Simplified">
</g>
</svg>
