<svg xmlns="http://www.w3.org/2000/svg" width="1920" height="1080"><path d="M-242,-279L-68,-273L846,-273Z" fill="#8acec7" stroke="#8acec7" stroke-width="1.51"/><path d="M-68,-273L358,-249L846,-273Z" fill="#7cc8c0" stroke="#7cc8c0" stroke-width="1.51"/><path d="M295,1358L-248,1399L865,1365Z" fill="#34897e" stroke="#34897e" stroke-width="1.51"/><path d="M-242,-279L846,-273L1238,-284Z" fill="#7bc8c0" stroke="#7bc8c0" stroke-width="1.51"/><path d="M1061,1349L865,1365L1265,1358Z" fill="#198174" stroke="#198174" stroke-width="1.51"/><path d="M1559,1346L1265,1358L1792,1356Z" fill="#007669" stroke="#007669" stroke-width="1.51"/><path d="M1238,-284L1581,-293L1909,-306Z" fill="#66b5ab" stroke="#66b5ab" stroke-width="1.51"/><path d="M-242,-279L1238,-284L1909,-306Z" fill="#75c4bc" stroke="#75c4bc" stroke-width="1.51"/><path d="M1971,292L2091,472L2128,263Z" fill="#2b8a7e" stroke="#2b8a7e" stroke-width="1.51"/><path d="M2091,472L2097,585L2128,263Z" fill="#28867a" stroke="#28867a" stroke-width="1.51"/><path d="M2097,585L1973,778L2132,821Z" fill="#108073" stroke="#108073" stroke-width="1.51"/><path d="M2128,263L2097,585L2132,821Z" fill="#1e8276" stroke="#1e8276" stroke-width="1.51"/><path d="M1910,1127L2131,1208L2132,1014Z" fill="#007062" stroke="#007062" stroke-width="1.51"/><path d="M2132,821L1925,966L2132,1014Z" fill="#007a6c" stroke="#007a6c" stroke-width="1.51"/><path d="M1944,1312L1792,1356L2143,1324Z" fill="#006558" stroke="#006558" stroke-width="1.51"/><path d="M2132,821L2132,1014L2143,1324Z" fill="#006f61" stroke="#006f61" stroke-width="1.51"/><path d="M2132,1014L2131,1208L2143,1324Z" fill="#00685a" stroke="#00685a" stroke-width="1.51"/><path d="M2086,-295L1963,-131L2151,-109Z" fill="#4f968c" stroke="#4f968c" stroke-width="1.51"/><path d="M1924,125L2128,263L2163,75Z" fill="#2b897d" stroke="#2b897d" stroke-width="1.51"/><path d="M2151,-109L1963,-131L2163,75Z" fill="#429085" stroke="#429085" stroke-width="1.51"/><path d="M1963,-131L1924,125L2163,75Z" fill="#3b9286" stroke="#3b9286" stroke-width="1.51"/><path d="M2128,263L2132,821L2163,75Z" fill="#298479" stroke="#298479" stroke-width="1.51"/><path d="M2132,821L2143,1324L2163,75Z" fill="#0e7b6e" stroke="#0e7b6e" stroke-width="1.51"/><path d="M1953,604L1973,778L2097,585Z" fill="#168679" stroke="#168679" stroke-width="1.51"/><path d="M1924,125L1971,292L2128,263Z" fill="#2c8e81" stroke="#2c8e81" stroke-width="1.51"/><path d="M1973,778L1925,966L2132,821Z" fill="#068072" stroke="#068072" stroke-width="1.51"/><path d="M2131,1208L1944,1312L2143,1324Z" fill="#006355" stroke="#006355" stroke-width="1.51"/><path d="M1971,292L1945,452L2091,472Z" fill="#2c8e82" stroke="#2c8e82" stroke-width="1.51"/><path d="M1925,966L1910,1127L2132,1014Z" fill="#00796b" stroke="#00796b" stroke-width="1.51"/><path d="M1910,1127L1944,1312L2131,1208Z" fill="#006d5f" stroke="#006d5f" stroke-width="1.51"/><path d="M1909,-306L1963,-131L2086,-295Z" fill="#599e94" stroke="#599e94" stroke-width="1.51"/><path d="M1945,452L1953,604L2091,472Z" fill="#248b7f" stroke="#248b7f" stroke-width="1.51"/><path d="M2091,472L1953,604L2097,585Z" fill="#20877a" stroke="#20877a" stroke-width="1.51"/><path d="M846,-273L1088,-262L1238,-284Z" fill="#70c1b8" stroke="#70c1b8" stroke-width="1.51"/><path d="M1581,-293L1797,-256L1909,-306Z" fill="#62aca2" stroke="#62aca2" stroke-width="1.51"/><path d="M1910,1127L1764,1192L1944,1312Z" fill="#007567" stroke="#007567" stroke-width="1.51"/><path d="M1945,452L1783,588L1953,604Z" fill="#229184" stroke="#229184" stroke-width="1.51"/><path d="M1783,588L1762,775L1953,604Z" fill="#189184" stroke="#189184" stroke-width="1.51"/><path d="M1909,-306L1797,-256L1963,-131Z" fill="#59a499" stroke="#59a499" stroke-width="1.51"/><path d="M1750,-56L1924,125L1963,-131Z" fill="#439d91" stroke="#439d91" stroke-width="1.51"/><path d="M1804,265L1945,452L1971,292Z" fill="#2d9488" stroke="#2d9488" stroke-width="1.51"/><path d="M1924,125L1804,265L1971,292Z" fill="#2d9488" stroke="#2d9488" stroke-width="1.51"/><path d="M1953,604L1762,775L1973,778Z" fill="#128b7e" stroke="#128b7e" stroke-width="1.51"/><path d="M1762,775L1925,966L1973,778Z" fill="#08887b" stroke="#08887b" stroke-width="1.51"/><path d="M1762,775L1788,983L1925,966Z" fill="#02897b" stroke="#02897b" stroke-width="1.51"/><path d="M1804,265L1725,413L1945,452Z" fill="#2e998c" stroke="#2e998c" stroke-width="1.51"/><path d="M1797,-256L1750,-56L1963,-131Z" fill="#51a499" stroke="#51a499" stroke-width="1.51"/><path d="M1750,-56L1726,108L1924,125Z" fill="#3b9d92" stroke="#3b9d92" stroke-width="1.51"/><path d="M1788,983L1910,1127L1925,966Z" fill="#008173" stroke="#008173" stroke-width="1.51"/><path d="M1764,1192L1792,1356L1944,1312Z" fill="#007163" stroke="#007163" stroke-width="1.51"/><path d="M1725,413L1783,588L1945,452Z" fill="#28968a" stroke="#28968a" stroke-width="1.51"/><path d="M1726,108L1804,265L1924,125Z" fill="#2e998c" stroke="#2e998c" stroke-width="1.51"/><path d="M1413,1329L1265,1358L1559,1346Z" fill="#057b6d" stroke="#057b6d" stroke-width="1.51"/><path d="M1788,983L1764,1192L1910,1127Z" fill="#007f71" stroke="#007f71" stroke-width="1.51"/><path d="M1238,-284L1383,-258L1581,-293Z" fill="#68b9b0" stroke="#68b9b0" stroke-width="1.51"/><path d="M1585,1031L1610,1194L1764,1192Z" fill="#008476" stroke="#008476" stroke-width="1.51"/><path d="M1581,581L1762,775L1783,588Z" fill="#199689" stroke="#199689" stroke-width="1.51"/><path d="M1762,775L1593,812L1788,983Z" fill="#078f82" stroke="#078f82" stroke-width="1.51"/><path d="M1585,1031L1764,1192L1788,983Z" fill="#008577" stroke="#008577" stroke-width="1.51"/><path d="M1764,1192L1610,1194L1792,1356Z" fill="#00796b" stroke="#00796b" stroke-width="1.51"/><path d="M1610,1194L1559,1346L1792,1356Z" fill="#007769" stroke="#007769" stroke-width="1.51"/><path d="M1554,-121L1750,-56L1797,-256Z" fill="#53aa9f" stroke="#53aa9f" stroke-width="1.51"/><path d="M1581,-293L1554,-121L1797,-256Z" fill="#5dafa5" stroke="#5dafa5" stroke-width="1.51"/><path d="M1726,108L1634,301L1804,265Z" fill="#2f9d91" stroke="#2f9d91" stroke-width="1.51"/><path d="M1634,301L1725,413L1804,265Z" fill="#2f9d91" stroke="#2f9d91" stroke-width="1.51"/><path d="M1725,413L1581,581L1783,588Z" fill="#259a8e" stroke="#259a8e" stroke-width="1.51"/><path d="M1593,812L1585,1031L1788,983Z" fill="#008e80" stroke="#008e80" stroke-width="1.51"/><path d="M1564,486L1581,581L1725,413Z" fill="#299e92" stroke="#299e92" stroke-width="1.51"/><path d="M1581,581L1593,812L1762,775Z" fill="#139689" stroke="#139689" stroke-width="1.51"/><path d="M1605,120L1634,301L1726,108Z" fill="#309f93" stroke="#309f93" stroke-width="1.51"/><path d="M1605,120L1726,108L1750,-56Z" fill="#3da296" stroke="#3da296" stroke-width="1.51"/><path d="M1554,-121L1605,120L1750,-56Z" fill="#46a79c" stroke="#46a79c" stroke-width="1.51"/><path d="M1634,301L1564,486L1725,413Z" fill="#30a094" stroke="#30a094" stroke-width="1.51"/><path d="M551,1325L295,1358L865,1365Z" fill="#2a887c" stroke="#2a887c" stroke-width="1.51"/><path d="M1581,581L1449,587L1593,812Z" fill="#199d90" stroke="#199d90" stroke-width="1.51"/><path d="M1417,998L1585,1031L1593,812Z" fill="#009385" stroke="#009385" stroke-width="1.51"/><path d="M1554,-121L1441,-49L1605,120Z" fill="#47aba0" stroke="#47aba0" stroke-width="1.51"/><path d="M1437,469L1564,486L1634,301Z" fill="#30a497" stroke="#30a497" stroke-width="1.51"/><path d="M1373,306L1437,469L1634,301Z" fill="#32a69a" stroke="#32a69a" stroke-width="1.51"/><path d="M1605,120L1373,306L1634,301Z" fill="#31a498" stroke="#31a498" stroke-width="1.51"/><path d="M358,-249L693,-241L846,-273Z" fill="#78c7be" stroke="#78c7be" stroke-width="1.51"/><path d="M1417,998L1364,1197L1585,1031Z" fill="#038e80" stroke="#038e80" stroke-width="1.51"/><path d="M1449,587L1378,820L1593,812Z" fill="#149c8f" stroke="#149c8f" stroke-width="1.51"/><path d="M1378,820L1417,998L1593,812Z" fill="#08988a" stroke="#08988a" stroke-width="1.51"/><path d="M1441,-49L1384,85L1605,120Z" fill="#40aa9f" stroke="#40aa9f" stroke-width="1.51"/><path d="M1384,85L1373,306L1605,120Z" fill="#33a79b" stroke="#33a79b" stroke-width="1.51"/><path d="M1413,1329L1559,1346L1610,1194Z" fill="#007d6f" stroke="#007d6f" stroke-width="1.51"/><path d="M1364,1197L1413,1329L1610,1194Z" fill="#028375" stroke="#028375" stroke-width="1.51"/><path d="M1585,1031L1364,1197L1610,1194Z" fill="#00897b" stroke="#00897b" stroke-width="1.51"/><path d="M1383,-258L1554,-121L1581,-293Z" fill="#5fb5ab" stroke="#5fb5ab" stroke-width="1.51"/><path d="M1564,486L1449,587L1581,581Z" fill="#25a093" stroke="#25a093" stroke-width="1.51"/><path d="M1437,469L1449,587L1564,486Z" fill="#29a397" stroke="#29a397" stroke-width="1.51"/><path d="M1383,-258L1441,-49L1554,-121Z" fill="#57b3a8" stroke="#57b3a8" stroke-width="1.51"/><path d="M1181,641L1200,780L1378,820Z" fill="#1ea194" stroke="#1ea194" stroke-width="1.51"/><path d="M1373,306L1270,461L1437,469Z" fill="#36a99d" stroke="#36a99d" stroke-width="1.51"/><path d="M1267,-60L1384,85L1441,-49Z" fill="#4aafa5" stroke="#4aafa5" stroke-width="1.51"/><path d="M1383,-258L1267,-60L1441,-49Z" fill="#57b4aa" stroke="#57b4aa" stroke-width="1.51"/><path d="M1181,641L1378,820L1449,587Z" fill="#1ea194" stroke="#1ea194" stroke-width="1.51"/><path d="M1437,469L1270,461L1449,587Z" fill="#2ea599" stroke="#2ea599" stroke-width="1.51"/><path d="M1270,461L1181,641L1449,587Z" fill="#2aa699" stroke="#2aa699" stroke-width="1.51"/><path d="M1267,-60L1270,50L1384,85Z" fill="#47b0a5" stroke="#47b0a5" stroke-width="1.51"/><path d="M1238,1165L1364,1197L1417,998Z" fill="#0b8e81" stroke="#0b8e81" stroke-width="1.51"/><path d="M1184,241L1373,306L1384,85Z" fill="#37aa9e" stroke="#37aa9e" stroke-width="1.51"/><path d="M1378,820L1197,951L1417,998Z" fill="#0e998c" stroke="#0e998c" stroke-width="1.51"/><path d="M1270,50L1184,241L1384,85Z" fill="#3baca1" stroke="#3baca1" stroke-width="1.51"/><path d="M1364,1197L1265,1358L1413,1329Z" fill="#098073" stroke="#098073" stroke-width="1.51"/><path d="M1197,951L1238,1165L1417,998Z" fill="#0f9487" stroke="#0f9487" stroke-width="1.51"/><path d="M1238,-284L1267,-60L1383,-258Z" fill="#61b9af" stroke="#61b9af" stroke-width="1.51"/><path d="M1200,780L1197,951L1378,820Z" fill="#179e90" stroke="#179e90" stroke-width="1.51"/><path d="M1238,1165L1265,1358L1364,1197Z" fill="#0d877a" stroke="#0d877a" stroke-width="1.51"/><path d="M1184,241L1270,461L1373,306Z" fill="#38ab9f" stroke="#38ab9f" stroke-width="1.51"/><path d="M1045,287L1057,473L1184,241Z" fill="#3eafa4" stroke="#3eafa4" stroke-width="1.51"/><path d="M1197,951L1097,1020L1238,1165Z" fill="#159689" stroke="#159689" stroke-width="1.51"/><path d="M1097,1020L1077,1128L1238,1165Z" fill="#169487" stroke="#169487" stroke-width="1.51"/><path d="M1238,1165L1061,1349L1265,1358Z" fill="#128478" stroke="#128478" stroke-width="1.51"/><path d="M1238,-284L1088,-262L1267,-60Z" fill="#64bbb2" stroke="#64bbb2" stroke-width="1.51"/><path d="M1088,-262L1076,-70L1267,-60Z" fill="#5db9b0" stroke="#5db9b0" stroke-width="1.51"/><path d="M1184,241L1057,473L1270,461Z" fill="#3bada2" stroke="#3bada2" stroke-width="1.51"/><path d="M1057,473L1181,641L1270,461Z" fill="#32aa9e" stroke="#32aa9e" stroke-width="1.51"/><path d="M1080,117L1184,241L1270,50Z" fill="#3dada3" stroke="#3dada3" stroke-width="1.51"/><path d="M1267,-60L1076,-70L1270,50Z" fill="#50b4aa" stroke="#50b4aa" stroke-width="1.51"/><path d="M1076,-70L1080,117L1270,50Z" fill="#4bb3a8" stroke="#4bb3a8" stroke-width="1.51"/><path d="M1081,771L1197,951L1200,780Z" fill="#1da093" stroke="#1da093" stroke-width="1.51"/><path d="M1077,1128L1061,1349L1238,1165Z" fill="#168d80" stroke="#168d80" stroke-width="1.51"/><path d="M1057,473L1088,679L1181,641Z" fill="#2fa89d" stroke="#2fa89d" stroke-width="1.51"/><path d="M1081,771L1097,1020L1197,951Z" fill="#1a9f92" stroke="#1a9f92" stroke-width="1.51"/><path d="M1181,641L1088,679L1200,780Z" fill="#24a498" stroke="#24a498" stroke-width="1.51"/><path d="M1088,679L1081,771L1200,780Z" fill="#23a498" stroke="#23a498" stroke-width="1.51"/><path d="M1080,117L1045,287L1184,241Z" fill="#3eafa4" stroke="#3eafa4" stroke-width="1.51"/><path d="M-68,-273L148,-237L358,-249Z" fill="#8acfc7" stroke="#8acfc7" stroke-width="1.51"/><path d="M358,-249L535,-222L693,-241Z" fill="#77c6be" stroke="#77c6be" stroke-width="1.51"/><path d="M1045,287L906,449L1057,473Z" fill="#43b1a6" stroke="#43b1a6" stroke-width="1.51"/><path d="M846,-273L820,-57L1076,-70Z" fill="#66bfb6" stroke="#66bfb6" stroke-width="1.51"/><path d="M902,1175L1061,1349L1077,1128Z" fill="#1f8f82" stroke="#1f8f82" stroke-width="1.51"/><path d="M886,247L1045,287L1080,117Z" fill="#43b1a6" stroke="#43b1a6" stroke-width="1.51"/><path d="M1076,-70L820,46L1080,117Z" fill="#51b6ac" stroke="#51b6ac" stroke-width="1.51"/><path d="M1057,473L869,616L1088,679Z" fill="#36aba0" stroke="#36aba0" stroke-width="1.51"/><path d="M846,-273L1076,-70L1088,-262Z" fill="#6abfb7" stroke="#6abfb7" stroke-width="1.51"/><path d="M868,999L1077,1128L1097,1020Z" fill="#219a8d" stroke="#219a8d" stroke-width="1.51"/><path d="M1081,771L893,841L1097,1020Z" fill="#24a295" stroke="#24a295" stroke-width="1.51"/><path d="M893,841L868,999L1097,1020Z" fill="#26a094" stroke="#26a094" stroke-width="1.51"/><path d="M820,-57L820,46L1076,-70Z" fill="#5bbab1" stroke="#5bbab1" stroke-width="1.51"/><path d="M868,999L902,1175L1077,1128Z" fill="#25988c" stroke="#25988c" stroke-width="1.51"/><path d="M869,616L893,841L1081,771Z" fill="#2fa89c" stroke="#2fa89c" stroke-width="1.51"/><path d="M869,616L1081,771L1088,679Z" fill="#2ea89c" stroke="#2ea89c" stroke-width="1.51"/><path d="M906,449L869,616L1057,473Z" fill="#3fafa4" stroke="#3fafa4" stroke-width="1.51"/><path d="M820,46L886,247L1080,117Z" fill="#48b3a9" stroke="#48b3a9" stroke-width="1.51"/><path d="M902,1175L865,1365L1061,1349Z" fill="#22897d" stroke="#22897d" stroke-width="1.51"/><path d="M886,247L906,449L1045,287Z" fill="#45b2a8" stroke="#45b2a8" stroke-width="1.51"/><path d="M728,-136L820,-57L846,-273Z" fill="#6dc2ba" stroke="#6dc2ba" stroke-width="1.51"/><path d="M664,1300L551,1325L865,1365Z" fill="#2b897e" stroke="#2b897e" stroke-width="1.51"/><path d="M711,970L658,1191L868,999Z" fill="#309e92" stroke="#309e92" stroke-width="1.51"/><path d="M820,46L731,301L886,247Z" fill="#4cb6ab" stroke="#4cb6ab" stroke-width="1.51"/><path d="M711,970L868,999L893,841Z" fill="#2fa498" stroke="#2fa498" stroke-width="1.51"/><path d="M869,616L692,662L893,841Z" fill="#38aca0" stroke="#38aca0" stroke-width="1.51"/><path d="M692,662L671,776L893,841Z" fill="#38aba0" stroke="#38aba0" stroke-width="1.51"/><path d="M664,1300L865,1365L902,1175Z" fill="#2a8e81" stroke="#2a8e81" stroke-width="1.51"/><path d="M658,1191L664,1300L902,1175Z" fill="#2d9387" stroke="#2d9387" stroke-width="1.51"/><path d="M868,999L658,1191L902,1175Z" fill="#2d9a8e" stroke="#2d9a8e" stroke-width="1.51"/><path d="M734,457L869,616L906,449Z" fill="#44b2a7" stroke="#44b2a7" stroke-width="1.51"/><path d="M886,247L731,301L906,449Z" fill="#4ab4aa" stroke="#4ab4aa" stroke-width="1.51"/><path d="M731,301L734,457L906,449Z" fill="#4db6ab" stroke="#4db6ab" stroke-width="1.51"/><path d="M-35,1338L-248,1399L295,1358Z" fill="#4b9287" stroke="#4b9287" stroke-width="1.51"/><path d="M671,776L711,970L893,841Z" fill="#34a89c" stroke="#34a89c" stroke-width="1.51"/><path d="M668,51L731,301L820,46Z" fill="#50b7ad" stroke="#50b7ad" stroke-width="1.51"/><path d="M693,-241L728,-136L846,-273Z" fill="#75c5bd" stroke="#75c5bd" stroke-width="1.51"/><path d="M734,457L692,662L869,616Z" fill="#42b1a6" stroke="#42b1a6" stroke-width="1.51"/><path d="M728,-136L668,51L820,-57Z" fill="#63beb5" stroke="#63beb5" stroke-width="1.51"/><path d="M820,-57L668,51L820,46Z" fill="#5cbcb2" stroke="#5cbcb2" stroke-width="1.51"/><path d="M102,1327L-35,1338L295,1358Z" fill="#439186" stroke="#439186" stroke-width="1.51"/><path d="M494,1004L658,1191L711,970Z" fill="#309e92" stroke="#309e92" stroke-width="1.51"/><path d="M558,-45L668,51L728,-136Z" fill="#62beb5" stroke="#62beb5" stroke-width="1.51"/><path d="M668,51L540,80L731,301Z" fill="#4eb6ac" stroke="#4eb6ac" stroke-width="1.51"/><path d="M540,80L491,319L731,301Z" fill="#4db6ac" stroke="#4db6ac" stroke-width="1.51"/><path d="M527,596L692,662L734,457Z" fill="#43b1a6" stroke="#43b1a6" stroke-width="1.51"/><path d="M471,459L527,596L734,457Z" fill="#47b3a8" stroke="#47b3a8" stroke-width="1.51"/><path d="M731,301L491,319L734,457Z" fill="#4db6ac" stroke="#4db6ac" stroke-width="1.51"/><path d="M491,319L471,459L734,457Z" fill="#4db6ac" stroke="#4db6ac" stroke-width="1.51"/><path d="M671,776L489,792L711,970Z" fill="#35a89d" stroke="#35a89d" stroke-width="1.51"/><path d="M489,792L494,1004L711,970Z" fill="#32a69a" stroke="#32a69a" stroke-width="1.51"/><path d="M693,-241L535,-222L728,-136Z" fill="#72c5bc" stroke="#72c5bc" stroke-width="1.51"/><path d="M535,-222L558,-45L728,-136Z" fill="#6bc2b9" stroke="#6bc2b9" stroke-width="1.51"/><path d="M494,1004L493,1201L658,1191Z" fill="#2f9a8e" stroke="#2f9a8e" stroke-width="1.51"/><path d="M527,596L489,792L671,776Z" fill="#3aaca1" stroke="#3aaca1" stroke-width="1.51"/><path d="M527,596L671,776L692,662Z" fill="#3bada2" stroke="#3bada2" stroke-width="1.51"/><path d="M658,1191L551,1325L664,1300Z" fill="#2c8f83" stroke="#2c8f83" stroke-width="1.51"/><path d="M558,-45L540,80L668,51Z" fill="#5abbb2" stroke="#5abbb2" stroke-width="1.51"/><path d="M493,1201L551,1325L658,1191Z" fill="#2d9286" stroke="#2d9286" stroke-width="1.51"/><path d="M357,655L489,792L527,596Z" fill="#3bada2" stroke="#3bada2" stroke-width="1.51"/><path d="M372,95L491,319L540,80Z" fill="#4db6ac" stroke="#4db6ac" stroke-width="1.51"/><path d="M371,-50L540,80L558,-45Z" fill="#5ebdb3" stroke="#5ebdb3" stroke-width="1.51"/><path d="M535,-222L371,-50L558,-45Z" fill="#69c1b8" stroke="#69c1b8" stroke-width="1.51"/><path d="M372,95L340,301L491,319Z" fill="#4fb7ac" stroke="#4fb7ac" stroke-width="1.51"/><path d="M489,792L357,989L494,1004Z" fill="#32a69a" stroke="#32a69a" stroke-width="1.51"/><path d="M358,-249L371,-50L535,-222Z" fill="#70c4bb" stroke="#70c4bb" stroke-width="1.51"/><path d="M371,-50L372,95L540,80Z" fill="#59bbb1" stroke="#59bbb1" stroke-width="1.51"/><path d="M493,1201L295,1358L551,1325Z" fill="#2b8c81" stroke="#2b8c81" stroke-width="1.51"/><path d="M337,817L357,989L489,792Z" fill="#37a89d" stroke="#37a89d" stroke-width="1.51"/><path d="M324,1207L295,1358L493,1201Z" fill="#319286" stroke="#319286" stroke-width="1.51"/><path d="M357,989L493,1201L494,1004Z" fill="#309e92" stroke="#309e92" stroke-width="1.51"/><path d="M357,989L324,1207L493,1201Z" fill="#329b8f" stroke="#329b8f" stroke-width="1.51"/><path d="M471,459L357,655L527,596Z" fill="#43b1a6" stroke="#43b1a6" stroke-width="1.51"/><path d="M280,478L357,655L471,459Z" fill="#4ab4a9" stroke="#4ab4a9" stroke-width="1.51"/><path d="M357,655L337,817L489,792Z" fill="#3baca1" stroke="#3baca1" stroke-width="1.51"/><path d="M340,301L471,459L491,319Z" fill="#4db6ac" stroke="#4db6ac" stroke-width="1.51"/><path d="M340,301L280,478L471,459Z" fill="#52b8ae" stroke="#52b8ae" stroke-width="1.51"/><path d="M142,117L156,312L340,301Z" fill="#5dbcb3" stroke="#5dbcb3" stroke-width="1.51"/><path d="M200,593L337,817L357,655Z" fill="#46b1a6" stroke="#46b1a6" stroke-width="1.51"/><path d="M280,478L200,593L357,655Z" fill="#4eb5aa" stroke="#4eb5aa" stroke-width="1.51"/><path d="M106,1128L324,1207L357,989Z" fill="#3ea094" stroke="#3ea094" stroke-width="1.51"/><path d="M157,957L106,1128L357,989Z" fill="#44a69b" stroke="#44a69b" stroke-width="1.51"/><path d="M337,817L157,957L357,989Z" fill="#3faa9e" stroke="#3faa9e" stroke-width="1.51"/><path d="M148,-237L159,-85L358,-249Z" fill="#7fcac2" stroke="#7fcac2" stroke-width="1.51"/><path d="M358,-249L159,-85L371,-50Z" fill="#73c5bd" stroke="#73c5bd" stroke-width="1.51"/><path d="M142,117L340,301L372,95Z" fill="#58bab0" stroke="#58bab0" stroke-width="1.51"/><path d="M371,-50L159,-85L372,95Z" fill="#67c0b8" stroke="#67c0b8" stroke-width="1.51"/><path d="M159,-85L142,117L372,95Z" fill="#68c0b7" stroke="#68c0b7" stroke-width="1.51"/><path d="M200,593L132,823L337,817Z" fill="#4ab1a7" stroke="#4ab1a7" stroke-width="1.51"/><path d="M156,312L280,478L340,301Z" fill="#59bbb1" stroke="#59bbb1" stroke-width="1.51"/><path d="M132,823L157,957L337,817Z" fill="#47aea3" stroke="#47aea3" stroke-width="1.51"/><path d="M102,1327L295,1358L324,1207Z" fill="#3b9186" stroke="#3b9186" stroke-width="1.51"/><path d="M106,1128L102,1327L324,1207Z" fill="#429a8f" stroke="#429a8f" stroke-width="1.51"/><path d="M156,312L115,452L280,478Z" fill="#5fbdb4" stroke="#5fbdb4" stroke-width="1.51"/><path d="M115,452L200,593L280,478Z" fill="#59b9b0" stroke="#59b9b0" stroke-width="1.51"/><path d="M-62,628L132,823L200,593Z" fill="#57b7ad" stroke="#57b7ad" stroke-width="1.51"/><path d="M115,452L-62,628L200,593Z" fill="#5ebbb2" stroke="#5ebbb2" stroke-width="1.51"/><path d="M-19,1204L102,1327L106,1128Z" fill="#4b9e93" stroke="#4b9e93" stroke-width="1.51"/><path d="M-62,628L-39,813L132,823Z" fill="#5bb7ad" stroke="#5bb7ad" stroke-width="1.51"/><path d="M-22,-129L-76,134L142,117Z" fill="#76c6bf" stroke="#76c6bf" stroke-width="1.51"/><path d="M15,402L115,452L156,312Z" fill="#65c0b7" stroke="#65c0b7" stroke-width="1.51"/><path d="M142,117L-45,265L156,312Z" fill="#66c0b7" stroke="#66c0b7" stroke-width="1.51"/><path d="M132,823L11,983L157,957Z" fill="#4eafa4" stroke="#4eafa4" stroke-width="1.51"/><path d="M11,983L106,1128L157,957Z" fill="#4daa9f" stroke="#4daa9f" stroke-width="1.51"/><path d="M148,-237L-22,-129L159,-85Z" fill="#83ccc5" stroke="#83ccc5" stroke-width="1.51"/><path d="M-22,-129L142,117L159,-85Z" fill="#78c7bf" stroke="#78c7bf" stroke-width="1.51"/><path d="M-76,134L-45,265L142,117Z" fill="#6cc2b9" stroke="#6cc2b9" stroke-width="1.51"/><path d="M-45,265L15,402L156,312Z" fill="#6ac1b8" stroke="#6ac1b8" stroke-width="1.51"/><path d="M-39,813L11,983L132,823Z" fill="#55b2a9" stroke="#55b2a9" stroke-width="1.51"/><path d="M-68,-273L-22,-129L148,-237Z" fill="#8ed1ca" stroke="#8ed1ca" stroke-width="1.51"/><path d="M15,402L-62,628L115,452Z" fill="#66bfb6" stroke="#66bfb6" stroke-width="1.51"/><path d="M-19,1204L-35,1338L102,1327Z" fill="#4c988e" stroke="#4c988e" stroke-width="1.51"/><path d="M11,983L-19,1204L106,1128Z" fill="#50a79c" stroke="#50a79c" stroke-width="1.51"/><path d="M-224,-118L-244,79L-76,134Z" fill="#86ccc5" stroke="#86ccc5" stroke-width="1.51"/><path d="M-224,-118L-76,134L-22,-129Z" fill="#86cdc6" stroke="#86cdc6" stroke-width="1.51"/><path d="M-39,813L-257,974L11,983Z" fill="#5eb5aa" stroke="#5eb5aa" stroke-width="1.51"/><path d="M-215,1158L-19,1204L11,983Z" fill="#58a99f" stroke="#58a99f" stroke-width="1.51"/><path d="M-257,974L-215,1158L11,983Z" fill="#60b0a5" stroke="#60b0a5" stroke-width="1.51"/><path d="M-45,265L-162,417L15,402Z" fill="#72c4bc" stroke="#72c4bc" stroke-width="1.51"/><path d="M-162,417L-62,628L15,402Z" fill="#6fc2b9" stroke="#6fc2b9" stroke-width="1.51"/><path d="M-62,628L-210,778L-39,813Z" fill="#65bbb1" stroke="#65bbb1" stroke-width="1.51"/><path d="M-210,778L-257,974L-39,813Z" fill="#66b9af" stroke="#66b9af" stroke-width="1.51"/><path d="M-68,-273L-224,-118L-22,-129Z" fill="#93d3cc" stroke="#93d3cc" stroke-width="1.51"/><path d="M-215,1158L-35,1338L-19,1204Z" fill="#56a096" stroke="#56a096" stroke-width="1.51"/><path d="M-162,417L-229,621L-62,628Z" fill="#71c2b9" stroke="#71c2b9" stroke-width="1.51"/><path d="M-76,134L-243,234L-45,265Z" fill="#76c6be" stroke="#76c6be" stroke-width="1.51"/><path d="M-215,1158L-248,1399L-35,1338Z" fill="#5a9d92" stroke="#5a9d92" stroke-width="1.51"/><path d="M-243,234L-162,417L-45,265Z" fill="#78c7be" stroke="#78c7be" stroke-width="1.51"/><path d="M-229,621L-210,778L-62,628Z" fill="#6cbfb5" stroke="#6cbfb5" stroke-width="1.51"/><path d="M-242,-279L-224,-118L-68,-273Z" fill="#9dd6d1" stroke="#9dd6d1" stroke-width="1.51"/><path d="M-244,79L-243,234L-76,134Z" fill="#7bc8c0" stroke="#7bc8c0" stroke-width="1.51"/><path d="M-243,234L-229,621L-162,417Z" fill="#7cc8c0" stroke="#7cc8c0" stroke-width="1.51"/><path d="M-229,621L-257,974L-210,778Z" fill="#6dbcb3" stroke="#6dbcb3" stroke-width="1.51"/><path d="M-257,974L-248,1399L-215,1158Z" fill="#64aaa0" stroke="#64aaa0" stroke-width="1.51"/><path d="M-242,-279L-244,79L-224,-118Z" fill="#95d3cd" stroke="#95d3cd" stroke-width="1.51"/><path d="M-243,234L-257,974L-229,621Z" fill="#75c3ba" stroke="#75c3ba" stroke-width="1.51"/><path d="M-244,79L-257,974L-243,234Z" fill="#7fc9c1" stroke="#7fc9c1" stroke-width="1.51"/></svg>